<svg width="185" height="150" xmlns="http://www.w3.org/2000/svg">
 <!-- Created with Method Draw - http://github.com/duopixel/Method-Draw/ -->

 <g>
  <title>Talent Tree Logo</title>
  <rect fill="none" id="canvas_background" height="152" width="187" y="-1" x="-1"/>
  <g display="none" overflow="visible" y="0" x="0" height="100%" width="100%" id="canvasGrid">
   <rect fill="url(#gridpattern)" stroke-width="0" y="0" x="0" height="100%" width="100%"/>
  </g>
 </g>
 <g>
  <title>Layer 1</title>
  <defs>
   <style type="text/css">
    <![CDATA[
    .fil2 {fill:#A8CF45}
    .fil0 {fill:#4D4D4D}
    .fil3 {fill:#A8CF45;fill-rule:nonzero}
    .fil1 {fill:#4D4D4D;fill-rule:nonzero}
   ]]>
   </style>
  </defs>
  <g stroke="null" id="svg_54">
   <g stroke="null" transform="matrix(0.09973077138892233,0,0,0.09383261371861765,-32945.571886997364,-21374.42888882333) " id="svg_7">
    <metadata stroke="null" transform="translate(0,-10.657275199890137) translate(0,-10.657275199890137) translate(0,-2685.63330078125) translate(-2045.507080078125,1577.2767333984375) translate(0.02013222686946392,0) translate(-0.01100981142371893,0) translate(-0.01100981142371893,0) translate(0.02013222686946392,0) translate(0,0.0059410762041807175) translate(0,0.0059410762041807175) translate(0,-0.00962287001311779) translate(0,29.14658546447754) translate(-0.01100981142371893,0) translate(-0.01100981142371893,0) translate(0.02013222686946392,0) translate(-2.0110206604003906,0) translate(484.4619140625,109.67729187011719) translate(329232.15625,0) translate(0,228784.015625) " id="svg_10"/>
    <path stroke="null" id="svg_12" d="m331094.116421,228343.170644c8,30 23,57 44,79c32,34 77,55 127,55c51,0 96,-21 128,-55c21,-22 36,-49 43,-79c4,-13 6,-28 6,-42c0,-98 -79,-177 -177,-177c-97,0 -176,79 -176,177c0,14 2,29 5,42zm171,-157c63,0 115,51 115,115c0,6 -1,12 -2,18c-5,33 -25,62 -52,79c-18,11 -39,17 -61,17c-22,0 -42,-6 -60,-17c-28,-17 -47,-46 -53,-79c0,-6 -1,-12 -1,-18c0,-64 51,-115 114,-115z" class="fil0"/>
    <path stroke="null" id="svg_13" d="m331265.116421,228514.170644l26,0l40,189l-66,53l-65,-53l39,-189l26,0z" class="fil0"/>
    <g stroke="null" id="svg_9">
     <path stroke="null" id="svg_14" d="m330430.116421,229295.170644l0,-235l-85,0l0,-21c0,-8 3,-15 9,-21c5,-6 12,-9 21,-9l197,0l0,51l-83,0l0,235l-59,0z" class="fil1"/>
     <path stroke="null" id="svg_15" d="m330682.116421,229184.170644c-8,4 -19,7 -32,11c-13,2 -20,4 -20,4c-10,3 -17,6 -21,11c-4,6 -6,12 -6,18c0,8 3,15 7,20c5,4 13,7 22,7c16,0 28,-5 37,-14c8,-9 13,-21 13,-36l0,-21zm13,102c-11,6 -24,10 -37,11c-13,2 -24,2 -34,2c-20,0 -38,-5 -53,-16c-15,-11 -22,-28 -22,-53c0,-24 7,-40 20,-50c14,-10 31,-17 52,-20c3,0 6,-1 10,-1c4,-1 9,-2 14,-2c24,-4 36,-11 36,-22c0,-8 -4,-14 -13,-16c-8,-3 -16,-4 -23,-4c-8,0 -15,1 -21,3c-6,2 -11,7 -14,13l-55,0c2,-17 10,-32 23,-43c15,-12 36,-19 64,-19c31,0 54,6 70,16c16,11 24,27 24,47l0,75c0,22 -4,40 -12,52c-8,13 -18,22 -29,27z" class="fil1"/>
     <path stroke="null" id="svg_16" d="m330760.116421,229009.170644l30,0c8,0 14,3 20,8c5,6 8,12 8,20l0,258l-58,0l0,-286z" class="fil1"/>
     <path stroke="null" id="svg_17" d="m330998.116421,229227.170644l41,0c-6,23 -17,41 -34,53c-18,13 -39,19 -65,19c-32,0 -57,-10 -74,-30c-18,-20 -27,-49 -27,-86c0,-35 9,-63 26,-83c18,-20 42,-31 74,-31c33,0 59,10 77,30c18,21 27,49 27,86c0,2 0,4 0,6c0,1 0,2 0,3c0,3 -1,5 -1,6l-144,0c1,17 5,30 13,38c7,9 18,13 32,13c9,0 17,-2 24,-6c2,0 3,-1 5,-2c1,-2 3,-3 4,-5c1,-2 3,-4 6,-7c4,-2 9,-4 16,-4zm-100,-65l85,0c-1,-15 -5,-26 -12,-33c-7,-8 -17,-12 -31,-12c-12,0 -22,4 -29,12c-8,8 -12,19 -13,33z" class="fil1"/>
     <path stroke="null" id="svg_18" d="m331257.116421,229295.170644l-29,0c-9,0 -16,-2 -21,-8c-5,-5 -8,-12 -8,-20l0,0l0,-113c0,-13 -4,-23 -12,-29c-8,-6 -17,-9 -27,-9c-10,0 -19,3 -26,9c-8,6 -12,16 -12,29l0,141l-58,0l0,-129c0,-38 10,-63 29,-76c20,-13 42,-20 66,-21c24,0 46,7 67,19c20,13 31,39 31,78l0,129z" class="fil1"/>
     <path stroke="null" id="svg_19" d="m331372.116421,229295.170644c-18,1 -38,1 -60,-1c-21,-1 -32,-15 -32,-40l0,-245l30,0c7,0 14,3 19,9c6,5 9,12 9,20l0,37l34,0l0,12c0,8 -3,15 -8,20c-6,5 -13,8 -20,8l-6,0l0,123c0,9 5,14 16,14l18,0l0,43z" class="fil1"/>
     <path stroke="null" id="svg_20" d="m331537.116421,229295.170644l0,-235l-85,0l0,-21c0,-8 3,-15 9,-21c6,-6 13,-9 21,-9l198,0l0,51l-84,0l0,235l-59,0z" class="fil3"/>
     <path stroke="null" id="svg_21" d="m331636.116421,229295.170644l0,-107c0,-21 3,-40 10,-54c6,-15 15,-27 26,-36c10,-8 23,-14 37,-18c14,-4 29,-6 44,-6c1,0 2,0 4,0c1,0 3,0 4,0l0,59l-19,0c-16,0 -28,4 -36,12c-8,8 -12,20 -12,36l0,114l-58,0z" class="fil3"/>
     <path stroke="null" id="svg_22" d="m331920.116421,229227.170644l42,0c-6,23 -18,41 -35,53c-17,13 -39,19 -65,19c-31,0 -56,-10 -74,-30c-17,-20 -26,-49 -26,-86c0,-35 8,-63 25,-83c18,-20 43,-31 74,-31c34,0 59,10 78,30c17,21 26,49 26,86c0,2 0,4 0,6c0,1 0,2 0,3c0,3 0,5 -1,6l-143,0c0,17 4,30 12,38c7,9 18,13 33,13c9,0 17,-2 24,-6c1,0 3,-1 4,-2c2,-2 3,-3 5,-5c0,-2 2,-4 6,-7c4,-2 9,-4 15,-4zm-99,-65l84,0c-1,-15 -5,-26 -11,-33c-7,-8 -18,-12 -31,-12c-12,0 -22,4 -30,12c-8,8 -12,19 -12,33z" class="fil3"/>
     <path stroke="null" id="svg_23" d="m332141.116421,229227.170644l41,0c-6,23 -17,41 -34,53c-18,13 -39,19 -65,19c-32,0 -56,-10 -74,-30c-18,-20 -27,-49 -27,-86c0,-35 9,-63 26,-83c18,-20 42,-31 74,-31c33,0 59,10 77,30c18,21 27,49 27,86c0,2 0,4 0,6c0,1 0,2 0,3c0,3 -1,5 -1,6l-144,0c1,17 5,30 13,38c7,9 18,13 32,13c9,0 18,-2 24,-6c2,0 3,-1 5,-2c1,-2 3,-3 4,-5c1,-2 3,-4 7,-7c3,-2 8,-4 15,-4zm-100,-65l85,0c-1,-15 -5,-26 -12,-33c-7,-8 -17,-12 -30,-12c-13,0 -23,4 -30,12c-8,8 -12,19 -13,33z" class="fil3"/>
    </g>
    <path stroke="null" id="svg_24" d="m331436.116421,228429.170644c23,48 37,106 37,168c0,79 -22,151 -57,203c-38,57 -91,91 -151,91c-59,0 -112,-34 -150,-91c-35,-52 -57,-124 -57,-203c0,-62 13,-120 37,-168c4,7 10,13 15,19c10,10 20,19 31,26c-14,36 -23,78 -23,123c0,67 18,127 47,170c27,39 62,64 100,64c38,0 74,-25 100,-64c29,-43 47,-103 47,-170c0,-45 -8,-87 -22,-123c11,-7 21,-16 30,-26c6,-6 11,-12 16,-19z" class="fil0"/>
    <g stroke="null" id="svg_8">
     <path stroke="null" id="svg_25" d="m331310.116421,228015.170644c0,-35 -18,-66 -45,-84c-27,18 -45,49 -45,84c0,35 18,65 45,83c27,-18 45,-48 45,-83z" class="fil2"/>
     <path stroke="null" id="svg_26" d="m331294.116421,227847.170644c1,-22 -10,-42 -26,-54c-18,10 -30,29 -31,51c-1,22 9,42 26,54c17,-11 29,-29 31,-51z" class="fil2"/>
     <g stroke="null" id="svg_27">
      <g stroke="null" id="svg_28">
       <path stroke="null" id="svg_29" d="m331148.116421,228018.170644c-22,-28 -55,-41 -87,-38c-11,30 -6,65 15,93c22,27 55,41 87,38c11,-31 6,-66 -15,-93z" class="fil2"/>
       <path stroke="null" id="svg_30" d="m331041.116421,228126.170644c-30,-17 -65,-17 -94,-2c2,32 20,63 50,80c30,17 66,17 95,2c-2,-32 -20,-63 -51,-80z" class="fil2"/>
       <path stroke="null" id="svg_31" d="m330961.116421,228272.170644c-33,9 -58,35 -68,66c24,21 59,30 92,21c34,-10 59,-35 69,-66c-25,-21 -59,-30 -93,-21z" class="fil2"/>
       <path stroke="null" id="svg_32" d="m330907.116421,228186.170644c-24,-5 -48,4 -64,20c9,21 27,38 52,43c24,5 48,-4 64,-20c-9,-21 -28,-38 -52,-43z" class="fil2"/>
       <path stroke="null" id="svg_33" d="m331003.116421,228014.170644c-18,-17 -43,-21 -65,-15c-3,23 5,46 23,63c19,16 44,21 66,15c3,-23 -5,-47 -24,-63z" class="fil2"/>
       <path stroke="null" id="svg_34" d="m331187.116421,227943.170644c-8,-16 -24,-27 -42,-28c-8,15 -9,34 -1,50c9,17 25,27 42,29c9,-15 10,-34 1,-51z" class="fil2"/>
       <path stroke="null" id="svg_35" d="m331080.116421,227890.170644c-14,-17 -36,-24 -56,-20c-5,19 -1,41 14,57c15,17 36,24 56,20c5,-19 1,-41 -14,-57z" class="fil2"/>
       <path stroke="null" id="svg_36" d="m330887.116421,228112.170644c-18,-9 -38,-7 -54,3c3,18 15,35 33,43c18,9 38,7 54,-3c-3,-18 -15,-35 -33,-43z" class="fil2"/>
       <path stroke="null" id="svg_37" d="m330923.116421,228053.170644c-13,-10 -29,-12 -43,-8c-2,15 4,30 17,40c12,11 28,13 43,8c1,-14 -5,-30 -17,-40z" class="fil2"/>
       <path stroke="null" id="svg_38" d="m331011.116421,227934.170644c-14,-12 -33,-16 -50,-11c-3,17 3,36 18,48c14,13 33,16 50,11c2,-17 -4,-35 -18,-48z" class="fil2"/>
       <path stroke="null" id="svg_39" d="m331138.116421,227853.170644c-6,-14 -18,-23 -32,-25c-8,11 -10,27 -3,40c6,14 18,23 32,25c7,-11 9,-27 3,-40z" class="fil2"/>
       <path stroke="null" id="svg_40" d="m331210.116421,227855.170644c-1,-17 -11,-31 -25,-39c-12,10 -20,25 -18,42c1,17 11,32 25,39c12,-9 20,-25 18,-42z" class="fil2"/>
      </g>
      <g stroke="null" id="svg_41">
       <path stroke="null" id="svg_42" d="m331383.116421,228018.170644c21,-28 54,-41 87,-38c10,30 6,65 -16,93c-21,27 -54,41 -86,38c-11,-31 -6,-66 15,-93z" class="fil2"/>
       <path stroke="null" id="svg_43" d="m331489.116421,228126.170644c30,-17 66,-17 95,-2c-2,32 -20,63 -51,80c-30,17 -65,17 -94,2c2,-32 20,-63 50,-80z" class="fil2"/>
       <path stroke="null" id="svg_44" d="m331569.116421,228272.170644c34,9 59,35 69,66c-25,21 -59,30 -93,21c-33,-10 -58,-35 -68,-66c24,-21 59,-30 92,-21z" class="fil2"/>
       <path stroke="null" id="svg_45" d="m331623.116421,228186.170644c25,-5 49,4 65,20c-9,21 -28,38 -52,43c-25,5 -48,-4 -65,-20c9,-21 28,-38 52,-43z" class="fil2"/>
       <path stroke="null" id="svg_46" d="m331527.116421,228014.170644c19,-17 44,-21 66,-15c3,23 -5,46 -24,63c-18,16 -43,21 -65,15c-4,-23 4,-47 23,-63z" class="fil2"/>
       <path stroke="null" id="svg_47" d="m331343.116421,227943.170644c9,-16 25,-27 42,-28c9,15 10,34 1,50c-8,17 -24,27 -41,29c-9,-15 -10,-34 -2,-51z" class="fil2"/>
       <path stroke="null" id="svg_48" d="m331450.116421,227890.170644c15,-17 36,-24 56,-20c6,19 1,41 -14,57c-14,17 -36,24 -56,20c-5,-19 0,-41 14,-57z" class="fil2"/>
       <path stroke="null" id="svg_49" d="m331643.116421,228112.170644c18,-9 38,-7 54,3c-3,18 -14,35 -32,43c-18,9 -38,7 -54,-3c3,-18 14,-35 32,-43z" class="fil2"/>
       <path stroke="null" id="svg_50" d="m331608.116421,228053.170644c12,-10 29,-12 43,-8c1,15 -5,30 -17,40c-13,11 -29,13 -43,8c-1,-14 4,-30 17,-40z" class="fil2"/>
       <path stroke="null" id="svg_51" d="m331520.116421,227934.170644c14,-12 33,-16 50,-11c2,17 -4,36 -18,48c-14,13 -33,16 -50,11c-3,-17 3,-35 18,-48z" class="fil2"/>
       <path stroke="null" id="svg_52" d="m331392.116421,227853.170644c7,-14 19,-23 33,-25c7,11 9,27 3,40c-6,14 -19,23 -32,25c-8,-11 -10,-27 -4,-40z" class="fil2"/>
       <path stroke="null" id="svg_53" d="m331320.116421,227855.170644c1,-17 11,-31 25,-39c13,10 20,25 19,42c-1,17 -11,32 -25,39c-13,-9 -20,-25 -19,-42z" class="fil2"/>
      </g>
     </g>
    </g>
   </g>
  </g>
 </g>
</svg>
