<?xml version="1.0" encoding="UTF-8"?>
<!DOCTYPE svg PUBLIC "-//W3C//DTD SVG 1.0//EN" "http://www.w3.org/TR/2001/REC-SVG-20010904/DTD/svg10.dtd">
<!-- Creator: CorelDRAW X8 -->
<svg xmlns="http://www.w3.org/2000/svg" xml:space="preserve" width="6.72833in" height="2.24404in" version="1.0" style="shape-rendering:geometricPrecision; text-rendering:geometricPrecision; image-rendering:optimizeQuality; fill-rule:evenodd; clip-rule:evenodd"
viewBox="0 0 4517 1506"
 xmlns:xlink="http://www.w3.org/1999/xlink">
 <defs>
  <style type="text/css">
   <![CDATA[
    .fil2 {fill:#A8CF45}
    .fil0 {fill:#4D4D4D}
    .fil3 {fill:#A8CF45;fill-rule:nonzero}
    .fil1 {fill:#4D4D4D;fill-rule:nonzero}
   ]]>
  </style>
 </defs>
 <g id="Layer_x0020_1">
  <metadata id="CorelCorpID_0Corel-Layer"/>
  <path class="fil0" d="M755 550c7,30 22,57 43,79 32,34 78,55 128,55 50,0 96,-21 128,-55 20,-22 36,-49 43,-79 4,-13 5,-28 5,-42 0,-98 -79,-177 -176,-177 -97,0 -176,79 -176,177 0,14 1,29 5,42zm171 -157c63,0 114,51 114,115 0,6 0,12 -1,18 -6,33 -25,62 -53,79 -17,11 -38,17 -60,17 -22,0 -43,-6 -60,-17 -28,-17 -48,-46 -53,-79 -1,-6 -1,-12 -1,-18 0,-64 51,-115 114,-115z"/>
  <path class="fil0" d="M926 721l26 0 40 189 -66 53 -66 -53 40 -189 26 0z"/>
  <g id="_2162183825792">
   <path class="fil1" d="M85 1502l0 -235 -85 0 0 -21c0,-8 3,-15 9,-21 6,-6 13,-9 21,-9l198 0 0 51 -84 0 0 235 -59 0z"/>
   <path class="fil1" d="M337 1391c-8,4 -18,7 -32,11 -13,2 -19,4 -19,4 -10,3 -18,6 -22,11 -4,6 -6,12 -6,18 0,8 3,15 8,20 5,4 12,7 21,7 16,0 28,-5 37,-14 9,-9 13,-21 13,-36l0 -21zm13 102c-11,6 -24,10 -37,11 -13,2 -24,2 -34,2 -20,0 -37,-5 -52,-16 -15,-11 -23,-28 -23,-53 0,-24 7,-40 21,-50 13,-10 30,-17 51,-20 3,0 7,-1 10,-1 4,-1 9,-2 14,-2 24,-4 36,-11 36,-22 0,-8 -4,-14 -13,-16 -8,-3 -16,-4 -23,-4 -8,0 -15,1 -21,3 -6,2 -11,7 -13,13l-56 0c2,-17 10,-32 23,-43 15,-12 37,-19 64,-19 31,0 55,6 70,16 16,11 24,27 24,47l0 75c0,22 -4,40 -12,52 -8,13 -18,22 -29,27z"/>
   <path class="fil1" d="M415 1216l30 0c8,0 15,3 20,8 6,6 8,12 8,20l0 258 -58 0 0 -286z"/>
   <path class="fil1" d="M653 1434l42 0c-6,23 -18,41 -35,53 -17,13 -39,19 -65,19 -32,0 -56,-10 -74,-30 -18,-20 -27,-49 -27,-86 0,-35 9,-63 26,-83 18,-20 43,-31 74,-31 33,0 59,10 77,30 18,21 27,49 27,86 0,2 0,4 0,6 0,1 0,2 0,3 0,3 0,5 -1,6l-144 0c1,17 5,30 13,38 7,9 18,13 32,13 10,0 18,-2 24,-6 2,0 3,-1 5,-2 1,-2 3,-3 4,-5 1,-2 3,-4 7,-7 3,-2 8,-4 15,-4zm-100 -65l85 0c-1,-15 -5,-26 -12,-33 -7,-8 -17,-12 -30,-12 -12,0 -22,4 -30,12 -8,8 -12,19 -13,33z"/>
   <path class="fil1" d="M912 1502l-29 0c-9,0 -15,-2 -21,-8 -5,-5 -8,-12 -8,-20l0 0 0 -113c0,-13 -3,-23 -12,-29 -8,-6 -17,-9 -27,-9 -10,0 -18,3 -26,9 -8,6 -12,16 -12,29l0 141 -58 0 0 -129c0,-38 10,-63 30,-76 19,-13 41,-20 65,-21 24,0 47,7 67,19 21,13 31,39 31,78l0 129z"/>
   <path class="fil1" d="M1027 1502c-18,1 -38,1 -59,-1 -22,-1 -32,-15 -32,-40l0 -245 30 0c7,0 13,3 19,9 5,5 8,12 8,20l0 37 34 0 0 12c0,8 -3,15 -8,20 -6,5 -12,8 -20,8l-6 0 0 123c0,9 5,14 17,14l17 0 0 43z"/>
   <path class="fil1" d="M1192 1502l0 -235 -84 0 0 -21c0,-8 3,-15 8,-21 6,-6 13,-9 22,-9l197 0 0 51 -84 0 0 235 -59 0z"/>
   <path class="fil1" d="M1302 1502l0 -107c0,-21 4,-40 10,-54 6,-15 15,-27 26,-36 11,-8 23,-14 37,-18 14,-4 29,-6 44,-6 1,0 2,0 4,0 2,0 3,0 4,0l0 59 -19 0c-16,0 -28,4 -36,12 -8,8 -12,20 -12,36l0 114 -58 0z"/>
   <path class="fil1" d="M1587 1434l41 0c-6,23 -18,41 -35,53 -17,13 -39,19 -65,19 -31,0 -56,-10 -74,-30 -17,-20 -26,-49 -26,-86 0,-35 8,-63 26,-83 17,-20 42,-31 74,-31 33,0 59,10 77,30 18,21 26,49 26,86 0,2 0,4 0,6 0,1 0,2 0,3 0,3 0,5 0,6l-144 0c0,17 5,30 12,38 7,9 18,13 33,13 9,0 17,-2 24,-6 1,0 3,-1 4,-2 2,-2 3,-3 5,-5 0,-2 3,-4 6,-7 4,-2 9,-4 16,-4zm-100 -65l85 0c-2,-15 -5,-26 -12,-33 -7,-8 -18,-12 -31,-12 -12,0 -22,4 -30,12 -7,8 -12,19 -12,33z"/>
   <path class="fil1" d="M1807 1434l42 0c-7,23 -18,41 -35,53 -17,13 -39,19 -65,19 -32,0 -56,-10 -74,-30 -18,-20 -27,-49 -27,-86 0,-35 9,-63 26,-83 18,-20 42,-31 74,-31 33,0 59,10 77,30 18,21 27,49 27,86 0,2 0,4 0,6 0,1 0,2 0,3 0,3 0,5 -1,6l-144 0c1,17 5,30 13,38 7,9 18,13 32,13 10,0 18,-2 24,-6 2,0 3,-1 5,-2 1,-2 3,-3 4,-5 1,-2 3,-4 7,-7 3,-2 8,-4 15,-4zm-100 -65l85 0c-1,-15 -5,-26 -12,-33 -7,-8 -17,-12 -30,-12 -12,0 -22,4 -30,12 -8,8 -12,19 -13,33z"/>
  </g>
  <path class="fil0" d="M1097 636c23,48 36,106 36,168 0,79 -21,151 -57,203 -37,57 -90,91 -150,91 -60,0 -113,-34 -150,-91 -36,-52 -58,-124 -58,-203 0,-62 14,-120 37,-168 5,7 10,13 16,19 9,10 20,19 30,26 -14,36 -22,78 -22,123 0,67 18,127 47,170 26,39 62,64 100,64 38,0 74,-25 100,-64 29,-43 47,-103 47,-170 0,-45 -8,-87 -23,-123 11,-7 21,-16 31,-26 5,-6 11,-12 16,-19z"/>
  <g id="_2162183830368">
   <path class="fil2" d="M971 222c0,-35 -18,-66 -45,-84 -27,18 -45,49 -45,84 0,35 18,65 45,83 27,-18 45,-48 45,-83z"/>
   <path class="fil2" d="M954 54c1,-22 -9,-42 -25,-54 -18,10 -30,29 -31,51 -1,22 9,42 25,54 18,-11 30,-29 31,-51z"/>
   <g>
    <g>
     <path class="fil2" d="M808 225c-21,-28 -54,-41 -86,-38 -11,30 -6,65 15,93 21,27 54,41 87,38 10,-31 6,-66 -16,-93z"/>
     <path class="fil2" d="M702 333c-30,-17 -66,-17 -95,-2 3,32 20,63 51,80 30,17 66,17 94,2 -2,-32 -20,-63 -50,-80z"/>
     <path class="fil2" d="M622 479c-34,9 -58,35 -68,66 24,21 58,30 92,21 34,-10 58,-35 68,-66 -24,-21 -58,-30 -92,-21z"/>
     <path class="fil2" d="M568 393c-24,-5 -48,4 -64,20 8,21 27,38 51,43 25,5 49,-4 65,-20 -9,-21 -28,-38 -52,-43z"/>
     <path class="fil2" d="M664 221c-19,-17 -43,-21 -66,-15 -3,23 5,46 24,63 19,16 43,21 66,15 3,-23 -5,-47 -24,-63z"/>
     <path class="fil2" d="M848 150c-9,-16 -25,-27 -42,-28 -8,15 -9,34 -1,50 8,17 24,27 42,29 8,-15 9,-34 1,-51z"/>
     <path class="fil2" d="M741 97c-15,-17 -36,-24 -56,-20 -5,19 -1,41 14,57 15,17 36,24 56,20 5,-19 1,-41 -14,-57z"/>
     <path class="fil2" d="M548 319c-18,-9 -38,-7 -54,3 3,18 14,35 32,43 18,9 38,7 54,-3 -2,-18 -14,-35 -32,-43z"/>
     <path class="fil2" d="M583 260c-12,-10 -28,-12 -43,-8 -1,15 5,30 17,40 13,11 29,13 43,8 2,-14 -4,-30 -17,-40z"/>
     <path class="fil2" d="M672 141c-15,-12 -34,-16 -51,-11 -2,17 4,36 18,48 15,13 34,16 51,11 2,-17 -4,-35 -18,-48z"/>
     <path class="fil2" d="M799 60c-6,-14 -19,-23 -33,-25 -7,11 -9,27 -3,40 6,14 19,23 33,25 7,-11 9,-27 3,-40z"/>
     <path class="fil2" d="M871 62c-1,-17 -11,-31 -25,-39 -13,10 -20,25 -19,42 2,17 11,32 25,39 13,-9 20,-25 19,-42z"/>
    </g>
    <g>
     <path class="fil2" d="M1044 225c21,-28 54,-41 86,-38 11,30 6,65 -15,93 -22,27 -54,41 -87,38 -10,-31 -6,-66 16,-93z"/>
     <path class="fil2" d="M1150 333c30,-17 66,-17 94,-2 -2,32 -20,63 -50,80 -30,17 -66,17 -95,2 3,-32 20,-63 51,-80z"/>
     <path class="fil2" d="M1230 479c34,9 58,35 68,66 -24,21 -58,30 -92,21 -34,-10 -58,-35 -68,-66 24,-21 58,-30 92,-21z"/>
     <path class="fil2" d="M1284 393c24,-5 48,4 64,20 -8,21 -27,38 -52,43 -24,5 -48,-4 -64,-20 9,-21 28,-38 52,-43z"/>
     <path class="fil2" d="M1188 221c18,-17 43,-21 65,-15 4,23 -4,46 -23,63 -19,16 -43,21 -66,15 -3,-23 5,-47 24,-63z"/>
     <path class="fil2" d="M1004 150c9,-16 25,-27 42,-28 8,15 9,34 1,50 -9,17 -25,27 -42,29 -8,-15 -9,-34 -1,-51z"/>
     <path class="fil2" d="M1111 97c15,-17 36,-24 56,-20 5,19 1,41 -14,57 -15,17 -36,24 -56,20 -5,-19 -1,-41 14,-57z"/>
     <path class="fil2" d="M1304 319c18,-9 38,-7 54,3 -3,18 -14,35 -32,43 -18,9 -39,7 -54,-3 2,-18 14,-35 32,-43z"/>
     <path class="fil2" d="M1269 260c12,-10 28,-12 42,-8 2,15 -4,30 -16,40 -13,11 -29,13 -43,8 -2,-14 4,-30 17,-40z"/>
     <path class="fil2" d="M1180 141c15,-12 34,-16 51,-11 2,17 -4,36 -18,48 -15,13 -34,16 -51,11 -2,-17 4,-35 18,-48z"/>
     <path class="fil2" d="M1053 60c6,-14 19,-23 32,-25 8,11 10,27 4,40 -6,14 -19,23 -33,25 -7,-11 -9,-27 -3,-40z"/>
     <path class="fil2" d="M981 62c1,-17 11,-31 25,-39 12,10 20,25 19,42 -2,17 -12,32 -25,39 -13,-9 -21,-25 -19,-42z"/>
    </g>
   </g>
  </g>
  <path class="fil0" d="M3425 550c8,30 23,57 44,79 32,34 77,55 127,55 51,0 96,-21 128,-55 21,-22 36,-49 43,-79 4,-13 6,-28 6,-42 0,-98 -79,-177 -177,-177 -97,0 -176,79 -176,177 0,14 2,29 5,42zm171 -157c63,0 115,51 115,115 0,6 -1,12 -2,18 -5,33 -25,62 -52,79 -18,11 -39,17 -61,17 -22,0 -42,-6 -60,-17 -28,-17 -47,-46 -53,-79 0,-6 -1,-12 -1,-18 0,-64 51,-115 114,-115z"/>
  <path class="fil0" d="M3596 721l26 0 40 189 -66 53 -65 -53 39 -189 26 0z"/>
  <g id="_2162183834784">
   <path class="fil1" d="M2761 1502l0 -235 -85 0 0 -21c0,-8 3,-15 9,-21 5,-6 12,-9 21,-9l197 0 0 51 -83 0 0 235 -59 0z"/>
   <path class="fil1" d="M3013 1391c-8,4 -19,7 -32,11 -13,2 -20,4 -20,4 -10,3 -17,6 -21,11 -4,6 -6,12 -6,18 0,8 3,15 7,20 5,4 13,7 22,7 16,0 28,-5 37,-14 8,-9 13,-21 13,-36l0 -21zm13 102c-11,6 -24,10 -37,11 -13,2 -24,2 -34,2 -20,0 -38,-5 -53,-16 -15,-11 -22,-28 -22,-53 0,-24 7,-40 20,-50 14,-10 31,-17 52,-20 3,0 6,-1 10,-1 4,-1 9,-2 14,-2 24,-4 36,-11 36,-22 0,-8 -4,-14 -13,-16 -8,-3 -16,-4 -23,-4 -8,0 -15,1 -21,3 -6,2 -11,7 -14,13l-55 0c2,-17 10,-32 23,-43 15,-12 36,-19 64,-19 31,0 54,6 70,16 16,11 24,27 24,47l0 75c0,22 -4,40 -12,52 -8,13 -18,22 -29,27z"/>
   <path class="fil1" d="M3091 1216l30 0c8,0 14,3 20,8 5,6 8,12 8,20l0 258 -58 0 0 -286z"/>
   <path class="fil1" d="M3329 1434l41 0c-6,23 -17,41 -34,53 -18,13 -39,19 -65,19 -32,0 -57,-10 -74,-30 -18,-20 -27,-49 -27,-86 0,-35 9,-63 26,-83 18,-20 42,-31 74,-31 33,0 59,10 77,30 18,21 27,49 27,86 0,2 0,4 0,6 0,1 0,2 0,3 0,3 -1,5 -1,6l-144 0c1,17 5,30 13,38 7,9 18,13 32,13 9,0 17,-2 24,-6 2,0 3,-1 5,-2 1,-2 3,-3 4,-5 1,-2 3,-4 6,-7 4,-2 9,-4 16,-4zm-100 -65l85 0c-1,-15 -5,-26 -12,-33 -7,-8 -17,-12 -31,-12 -12,0 -22,4 -29,12 -8,8 -12,19 -13,33z"/>
   <path class="fil1" d="M3588 1502l-29 0c-9,0 -16,-2 -21,-8 -5,-5 -8,-12 -8,-20l0 0 0 -113c0,-13 -4,-23 -12,-29 -8,-6 -17,-9 -27,-9 -10,0 -19,3 -26,9 -8,6 -12,16 -12,29l0 141 -58 0 0 -129c0,-38 10,-63 29,-76 20,-13 42,-20 66,-21 24,0 46,7 67,19 20,13 31,39 31,78l0 129z"/>
   <path class="fil1" d="M3703 1502c-18,1 -38,1 -60,-1 -21,-1 -32,-15 -32,-40l0 -245 30 0c7,0 14,3 19,9 6,5 9,12 9,20l0 37 34 0 0 12c0,8 -3,15 -8,20 -6,5 -13,8 -20,8l-6 0 0 123c0,9 5,14 16,14l18 0 0 43z"/>
   <path class="fil3" d="M3868 1502l0 -235 -85 0 0 -21c0,-8 3,-15 9,-21 6,-6 13,-9 21,-9l198 0 0 51 -84 0 0 235 -59 0z"/>
   <path class="fil3" d="M3967 1502l0 -107c0,-21 3,-40 10,-54 6,-15 15,-27 26,-36 10,-8 23,-14 37,-18 14,-4 29,-6 44,-6 1,0 2,0 4,0 1,0 3,0 4,0l0 59 -19 0c-16,0 -28,4 -36,12 -8,8 -12,20 -12,36l0 114 -58 0z"/>
   <path class="fil3" d="M4251 1434l42 0c-6,23 -18,41 -35,53 -17,13 -39,19 -65,19 -31,0 -56,-10 -74,-30 -17,-20 -26,-49 -26,-86 0,-35 8,-63 25,-83 18,-20 43,-31 74,-31 34,0 59,10 78,30 17,21 26,49 26,86 0,2 0,4 0,6 0,1 0,2 0,3 0,3 0,5 -1,6l-143 0c0,17 4,30 12,38 7,9 18,13 33,13 9,0 17,-2 24,-6 1,0 3,-1 4,-2 2,-2 3,-3 5,-5 0,-2 2,-4 6,-7 4,-2 9,-4 15,-4zm-99 -65l84 0c-1,-15 -5,-26 -11,-33 -7,-8 -18,-12 -31,-12 -12,0 -22,4 -30,12 -8,8 -12,19 -12,33z"/>
   <path class="fil3" d="M4472 1434l41 0c-6,23 -17,41 -34,53 -18,13 -39,19 -65,19 -32,0 -56,-10 -74,-30 -18,-20 -27,-49 -27,-86 0,-35 9,-63 26,-83 18,-20 42,-31 74,-31 33,0 59,10 77,30 18,21 27,49 27,86 0,2 0,4 0,6 0,1 0,2 0,3 0,3 -1,5 -1,6l-144 0c1,17 5,30 13,38 7,9 18,13 32,13 9,0 18,-2 24,-6 2,0 3,-1 5,-2 1,-2 3,-3 4,-5 1,-2 3,-4 7,-7 3,-2 8,-4 15,-4zm-100 -65l85 0c-1,-15 -5,-26 -12,-33 -7,-8 -17,-12 -30,-12 -13,0 -23,4 -30,12 -8,8 -12,19 -13,33z"/>
  </g>
  <path class="fil0" d="M3767 636c23,48 37,106 37,168 0,79 -22,151 -57,203 -38,57 -91,91 -151,91 -59,0 -112,-34 -150,-91 -35,-52 -57,-124 -57,-203 0,-62 13,-120 37,-168 4,7 10,13 15,19 10,10 20,19 31,26 -14,36 -23,78 -23,123 0,67 18,127 47,170 27,39 62,64 100,64 38,0 74,-25 100,-64 29,-43 47,-103 47,-170 0,-45 -8,-87 -22,-123 11,-7 21,-16 30,-26 6,-6 11,-12 16,-19z"/>
  <g id="_2162183840576">
   <path class="fil2" d="M3641 222c0,-35 -18,-66 -45,-84 -27,18 -45,49 -45,84 0,35 18,65 45,83 27,-18 45,-48 45,-83z"/>
   <path class="fil2" d="M3625 54c1,-22 -10,-42 -26,-54 -18,10 -30,29 -31,51 -1,22 9,42 26,54 17,-11 29,-29 31,-51z"/>
   <g>
    <g>
     <path class="fil2" d="M3479 225c-22,-28 -55,-41 -87,-38 -11,30 -6,65 15,93 22,27 55,41 87,38 11,-31 6,-66 -15,-93z"/>
     <path class="fil2" d="M3372 333c-30,-17 -65,-17 -94,-2 2,32 20,63 50,80 30,17 66,17 95,2 -2,-32 -20,-63 -51,-80z"/>
     <path class="fil2" d="M3292 479c-33,9 -58,35 -68,66 24,21 59,30 92,21 34,-10 59,-35 69,-66 -25,-21 -59,-30 -93,-21z"/>
     <path class="fil2" d="M3238 393c-24,-5 -48,4 -64,20 9,21 27,38 52,43 24,5 48,-4 64,-20 -9,-21 -28,-38 -52,-43z"/>
     <path class="fil2" d="M3334 221c-18,-17 -43,-21 -65,-15 -3,23 5,46 23,63 19,16 44,21 66,15 3,-23 -5,-47 -24,-63z"/>
     <path class="fil2" d="M3518 150c-8,-16 -24,-27 -42,-28 -8,15 -9,34 -1,50 9,17 25,27 42,29 9,-15 10,-34 1,-51z"/>
     <path class="fil2" d="M3411 97c-14,-17 -36,-24 -56,-20 -5,19 -1,41 14,57 15,17 36,24 56,20 5,-19 1,-41 -14,-57z"/>
     <path class="fil2" d="M3218 319c-18,-9 -38,-7 -54,3 3,18 15,35 33,43 18,9 38,7 54,-3 -3,-18 -15,-35 -33,-43z"/>
     <path class="fil2" d="M3254 260c-13,-10 -29,-12 -43,-8 -2,15 4,30 17,40 12,11 28,13 43,8 1,-14 -5,-30 -17,-40z"/>
     <path class="fil2" d="M3342 141c-14,-12 -33,-16 -50,-11 -3,17 3,36 18,48 14,13 33,16 50,11 2,-17 -4,-35 -18,-48z"/>
     <path class="fil2" d="M3469 60c-6,-14 -18,-23 -32,-25 -8,11 -10,27 -3,40 6,14 18,23 32,25 7,-11 9,-27 3,-40z"/>
     <path class="fil2" d="M3541 62c-1,-17 -11,-31 -25,-39 -12,10 -20,25 -18,42 1,17 11,32 25,39 12,-9 20,-25 18,-42z"/>
    </g>
    <g>
     <path class="fil2" d="M3714 225c21,-28 54,-41 87,-38 10,30 6,65 -16,93 -21,27 -54,41 -86,38 -11,-31 -6,-66 15,-93z"/>
     <path class="fil2" d="M3820 333c30,-17 66,-17 95,-2 -2,32 -20,63 -51,80 -30,17 -65,17 -94,2 2,-32 20,-63 50,-80z"/>
     <path class="fil2" d="M3900 479c34,9 59,35 69,66 -25,21 -59,30 -93,21 -33,-10 -58,-35 -68,-66 24,-21 59,-30 92,-21z"/>
     <path class="fil2" d="M3954 393c25,-5 49,4 65,20 -9,21 -28,38 -52,43 -25,5 -48,-4 -65,-20 9,-21 28,-38 52,-43z"/>
     <path class="fil2" d="M3858 221c19,-17 44,-21 66,-15 3,23 -5,46 -24,63 -18,16 -43,21 -65,15 -4,-23 4,-47 23,-63z"/>
     <path class="fil2" d="M3674 150c9,-16 25,-27 42,-28 9,15 10,34 1,50 -8,17 -24,27 -41,29 -9,-15 -10,-34 -2,-51z"/>
     <path class="fil2" d="M3781 97c15,-17 36,-24 56,-20 6,19 1,41 -14,57 -14,17 -36,24 -56,20 -5,-19 0,-41 14,-57z"/>
     <path class="fil2" d="M3974 319c18,-9 38,-7 54,3 -3,18 -14,35 -32,43 -18,9 -38,7 -54,-3 3,-18 14,-35 32,-43z"/>
     <path class="fil2" d="M3939 260c12,-10 29,-12 43,-8 1,15 -5,30 -17,40 -13,11 -29,13 -43,8 -1,-14 4,-30 17,-40z"/>
     <path class="fil2" d="M3851 141c14,-12 33,-16 50,-11 2,17 -4,36 -18,48 -14,13 -33,16 -50,11 -3,-17 3,-35 18,-48z"/>
     <path class="fil2" d="M3723 60c7,-14 19,-23 33,-25 7,11 9,27 3,40 -6,14 -19,23 -32,25 -8,-11 -10,-27 -4,-40z"/>
     <path class="fil2" d="M3651 62c1,-17 11,-31 25,-39 13,10 20,25 19,42 -1,17 -11,32 -25,39 -13,-9 -20,-25 -19,-42z"/>
    </g>
   </g>
  </g>
 </g>
</svg>
