<svg width="55" height="58" xmlns="http://www.w3.org/2000/svg">
 <!-- Created with Method Draw - http://github.com/duopixel/Method-Draw/ -->

 <g>
  <title>background</title>
  <rect fill="none" id="canvas_background" height="60" width="57" y="-1" x="-1"/>
  <g display="none" overflow="visible" y="0" x="0" height="100%" width="100%" id="canvasGrid">
   <rect fill="url(#gridpattern)" stroke-width="0" y="0" x="0" height="100%" width="100%"/>
  </g>
 </g>
 <g>
  <title>Layer 1</title>
  <!-- Created with Method Draw - http://github.com/duopixel/Method-Draw/ -->
  <g fill="#fff" id="svg_105">
   <g transform="matrix(0.5194383394736555,0,0,0.5194383394736555,0,0) " id="svg_102">
    <title transform="translate(-38.50312805175781,3.8503127098083496) translate(-0.00002206325370934792,0) translate(0,-309.9501647949219) translate(0,0.9188967347145081) translate(-463.962646484375,0) translate(-0.00002937555473181419,0) translate(-0.8326206803321838,0) translate(465.7953186035156,0) translate(0,310.0312805175781) ">Talent Tree Logo</title>
    <rect x="-38.503128" y="3.850325" width="187" height="152" id="svg_100" fill="none"/>
    <g id="svg_99" display="none">
     <rect id="svg_103" width="580" height="400" x="-37.503128" y="4.850325" stroke-width="0" fill="url(#gridpattern)"/>
    </g>
   </g>
   <g transform="matrix(0.5194383394736555,0,0,0.5194383394736555,0,0) " id="svg_104">
    <title transform="translate(-38.50312805175781,3.8503127098083496) translate(-0.00002206325370934792,0) translate(0,-309.9501647949219) translate(0,0.9188967347145081) translate(-463.962646484375,0) translate(-0.00002937555473181419,0) translate(-0.8326206803321838,0) translate(465.7953186035156,0) translate(0,310.0312805175781) ">Layer 1</title>
    <defs transform="translate(-38.50312805175781,3.8503127098083496) translate(-0.00002206325370934792,0) translate(0,-309.9501647949219) translate(0,0.9188967347145081) translate(-463.962646484375,0) translate(-0.00002937555473181419,0) translate(-0.8326206803321838,0) translate(465.7953186035156,0) translate(0,310.0312805175781) ">
     <style type="text/css">
      <![CDATA[
    .fil2 {fill:#A8CF45}
    .fil0 {fill:#fff}
    .fil3 {fill:#A8CF45;fill-rule:nonzero}
    .fil1 {fill:#fff;fill-rule:nonzero}
   ]]>
     </style>
    </defs>
    <g id="svg_52" stroke="null">
     <g id="svg_53" transform="matrix(0.09973077138892233,0,0,0.09383261371861765,-32945.571886997364,-21374.42888882333) " stroke="null">
      <metadata transform="translate(-386.0706787109375,41.033843994140625) translate(-0.00022122811060398817,0) translate(0,-3303.224365234375) translate(0,9.792935371398926) translate(-4652.1513671875,0) translate(-0.0002945485757663846,0) translate(-8.348684310913086,0) translate(4670.52734375,0) translate(0,3304.088623046875) " id="svg_98"/>
      <path class="fil0" d="m330718.072518,228394.861677c8,30 23,57 44,79c32,34 77,55 127,55c51,0 96,-21 128,-55c21,-22 36,-49 43,-79c4,-13 6,-28 6,-42c0,-98 -79,-177 -177,-177c-97,0 -176,79 -176,177c0,14 2,29 5,42zm171,-157c63,0 115,51 115,115c0,6 -1,12 -2,18c-5,33 -25,62 -52,79c-18,11 -39,17 -61,17c-22,0 -42,-6 -60,-17c-28,-17 -47,-46 -53,-79c0,-6 -1,-12 -1,-18c0,-64 51,-115 114,-115z" id="svg_97" stroke="null"/>
      <path class="fil0" d="m330889.072518,228565.861677l26,0l40,189l-66,53l-65,-53l39,-189l26,0z" id="svg_96" stroke="null"/>
      <g id="svg_85" stroke="null">
       <path class="fil1" d="m330054.072518,229346.861677l0,-235l-85,0l0,-21c0,-8 3,-15 9,-21c5,-6 12,-9 21,-9l197,0l0,51l-83,0l0,235l-59,0z" id="svg_95" stroke="null"/>
       <path class="fil1" d="m330306.072518,229235.861677c-8,4 -19,7 -32,11c-13,2 -20,4 -20,4c-10,3 -17,6 -21,11c-4,6 -6,12 -6,18c0,8 3,15 7,20c5,4 13,7 22,7c16,0 28,-5 37,-14c8,-9 13,-21 13,-36l0,-21zm13,102c-11,6 -24,10 -37,11c-13,2 -24,2 -34,2c-20,0 -38,-5 -53,-16c-15,-11 -22,-28 -22,-53c0,-24 7,-40 20,-50c14,-10 31,-17 52,-20c3,0 6,-1 10,-1c4,-1 9,-2 14,-2c24,-4 36,-11 36,-22c0,-8 -4,-14 -13,-16c-8,-3 -16,-4 -23,-4c-8,0 -15,1 -21,3c-6,2 -11,7 -14,13l-55,0c2,-17 10,-32 23,-43c15,-12 36,-19 64,-19c31,0 54,6 70,16c16,11 24,27 24,47l0,75c0,22 -4,40 -12,52c-8,13 -18,22 -29,27z" id="svg_94" stroke="null"/>
       <path class="fil1" d="m330384.072518,229060.861677l30,0c8,0 14,3 20,8c5,6 8,12 8,20l0,258l-58,0l0,-286z" id="svg_93" stroke="null"/>
       <path class="fil1" d="m330622.072518,229278.861677l41,0c-6,23 -17,41 -34,53c-18,13 -39,19 -65,19c-32,0 -57,-10 -74,-30c-18,-20 -27,-49 -27,-86c0,-35 9,-63 26,-83c18,-20 42,-31 74,-31c33,0 59,10 77,30c18,21 27,49 27,86c0,2 0,4 0,6c0,1 0,2 0,3c0,3 -1,5 -1,6l-144,0c1,17 5,30 13,38c7,9 18,13 32,13c9,0 17,-2 24,-6c2,0 3,-1 5,-2c1,-2 3,-3 4,-5c1,-2 3,-4 6,-7c4,-2 9,-4 16,-4zm-100,-65l85,0c-1,-15 -5,-26 -12,-33c-7,-8 -17,-12 -31,-12c-12,0 -22,4 -29,12c-8,8 -12,19 -13,33z" id="svg_92" stroke="null"/>
       <path class="fil1" d="m330881.072518,229346.861677l-29,0c-9,0 -16,-2 -21,-8c-5,-5 -8,-12 -8,-20l0,0l0,-113c0,-13 -4,-23 -12,-29c-8,-6 -17,-9 -27,-9c-10,0 -19,3 -26,9c-8,6 -12,16 -12,29l0,141l-58,0l0,-129c0,-38 10,-63 29,-76c20,-13 42,-20 66,-21c24,0 46,7 67,19c20,13 31,39 31,78l0,129z" id="svg_91" stroke="null"/>
       <path class="fil1" d="m330996.072518,229346.861677c-18,1 -38,1 -60,-1c-21,-1 -32,-15 -32,-40l0,-245l30,0c7,0 14,3 19,9c6,5 9,12 9,20l0,37l34,0l0,12c0,8 -3,15 -8,20c-6,5 -13,8 -20,8l-6,0l0,123c0,9 5,14 16,14l18,0l0,43z" id="svg_90" stroke="null"/>
       <path class="fil3" d="m331161.072518,229346.861677l0,-235l-85,0l0,-21c0,-8 3,-15 9,-21c6,-6 13,-9 21,-9l198,0l0,51l-84,0l0,235l-59,0z" id="svg_89" stroke="null"/>
       <path class="fil3" d="m331260.072518,229346.861677l0,-107c0,-21 3,-40 10,-54c6,-15 15,-27 26,-36c10,-8 23,-14 37,-18c14,-4 29,-6 44,-6c1,0 2,0 4,0c1,0 3,0 4,0l0,59l-19,0c-16,0 -28,4 -36,12c-8,8 -12,20 -12,36l0,114l-58,0z" id="svg_88" stroke="null"/>
       <path class="fil3" d="m331544.072518,229278.861677l42,0c-6,23 -18,41 -35,53c-17,13 -39,19 -65,19c-31,0 -56,-10 -74,-30c-17,-20 -26,-49 -26,-86c0,-35 8,-63 25,-83c18,-20 43,-31 74,-31c34,0 59,10 78,30c17,21 26,49 26,86c0,2 0,4 0,6c0,1 0,2 0,3c0,3 0,5 -1,6l-143,0c0,17 4,30 12,38c7,9 18,13 33,13c9,0 17,-2 24,-6c1,0 3,-1 4,-2c2,-2 3,-3 5,-5c0,-2 2,-4 6,-7c4,-2 9,-4 15,-4zm-99,-65l84,0c-1,-15 -5,-26 -11,-33c-7,-8 -18,-12 -31,-12c-12,0 -22,4 -30,12c-8,8 -12,19 -12,33z" id="svg_87" stroke="null"/>
       <path class="fil3" d="m331765.072518,229278.861677l41,0c-6,23 -17,41 -34,53c-18,13 -39,19 -65,19c-32,0 -56,-10 -74,-30c-18,-20 -27,-49 -27,-86c0,-35 9,-63 26,-83c18,-20 42,-31 74,-31c33,0 59,10 77,30c18,21 27,49 27,86c0,2 0,4 0,6c0,1 0,2 0,3c0,3 -1,5 -1,6l-144,0c1,17 5,30 13,38c7,9 18,13 32,13c9,0 18,-2 24,-6c2,0 3,-1 5,-2c1,-2 3,-3 4,-5c1,-2 3,-4 7,-7c3,-2 8,-4 15,-4zm-100,-65l85,0c-1,-15 -5,-26 -12,-33c-7,-8 -17,-12 -30,-12c-13,0 -23,4 -30,12c-8,8 -12,19 -13,33z" id="svg_86" stroke="null"/>
      </g>
      <path class="fil0" d="m331060.072518,228480.861677c23,48 37,106 37,168c0,79 -22,151 -57,203c-38,57 -91,91 -151,91c-59,0 -112,-34 -150,-91c-35,-52 -57,-124 -57,-203c0,-62 13,-120 37,-168c4,7 10,13 15,19c10,10 20,19 31,26c-14,36 -23,78 -23,123c0,67 18,127 47,170c27,39 62,64 100,64c38,0 74,-25 100,-64c29,-43 47,-103 47,-170c0,-45 -8,-87 -22,-123c11,-7 21,-16 30,-26c6,-6 11,-12 16,-19z" id="svg_84" stroke="null"/>
      <g id="svg_54" stroke="null">
       <path class="fil2" d="m330934.072518,228066.861677c0,-35 -18,-66 -45,-84c-27,18 -45,49 -45,84c0,35 18,65 45,83c27,-18 45,-48 45,-83z" id="svg_83" stroke="null"/>
       <path class="fil2" d="m330918.072518,227898.861677c1,-22 -10,-42 -26,-54c-18,10 -30,29 -31,51c-1,22 9,42 26,54c17,-11 29,-29 31,-51z" id="svg_82" stroke="null"/>
       <g id="svg_55" stroke="null">
        <g id="svg_69" stroke="null">
         <path class="fil2" d="m330772.072518,228069.861677c-22,-28 -55,-41 -87,-38c-11,30 -6,65 15,93c22,27 55,41 87,38c11,-31 6,-66 -15,-93z" id="svg_81" stroke="null"/>
         <path class="fil2" d="m330665.072518,228177.861677c-30,-17 -65,-17 -94,-2c2,32 20,63 50,80c30,17 66,17 95,2c-2,-32 -20,-63 -51,-80z" id="svg_80" stroke="null"/>
         <path class="fil2" d="m330585.072518,228323.861677c-33,9 -58,35 -68,66c24,21 59,30 92,21c34,-10 59,-35 69,-66c-25,-21 -59,-30 -93,-21z" id="svg_79" stroke="null"/>
         <path class="fil2" d="m330531.072518,228237.861677c-24,-5 -48,4 -64,20c9,21 27,38 52,43c24,5 48,-4 64,-20c-9,-21 -28,-38 -52,-43z" id="svg_78" stroke="null"/>
         <path class="fil2" d="m330627.072518,228065.861677c-18,-17 -43,-21 -65,-15c-3,23 5,46 23,63c19,16 44,21 66,15c3,-23 -5,-47 -24,-63z" id="svg_77" stroke="null"/>
         <path class="fil2" d="m330811.072518,227994.861677c-8,-16 -24,-27 -42,-28c-8,15 -9,34 -1,50c9,17 25,27 42,29c9,-15 10,-34 1,-51z" id="svg_76" stroke="null"/>
         <path class="fil2" d="m330704.072518,227941.861677c-14,-17 -36,-24 -56,-20c-5,19 -1,41 14,57c15,17 36,24 56,20c5,-19 1,-41 -14,-57z" id="svg_75" stroke="null"/>
         <path class="fil2" d="m330511.072518,228163.861677c-18,-9 -38,-7 -54,3c3,18 15,35 33,43c18,9 38,7 54,-3c-3,-18 -15,-35 -33,-43z" id="svg_74" stroke="null"/>
         <path class="fil2" d="m330547.072518,228104.861677c-13,-10 -29,-12 -43,-8c-2,15 4,30 17,40c12,11 28,13 43,8c1,-14 -5,-30 -17,-40z" id="svg_73" stroke="null"/>
         <path class="fil2" d="m330635.072518,227985.861677c-14,-12 -33,-16 -50,-11c-3,17 3,36 18,48c14,13 33,16 50,11c2,-17 -4,-35 -18,-48z" id="svg_72" stroke="null"/>
         <path class="fil2" d="m330762.072518,227904.861677c-6,-14 -18,-23 -32,-25c-8,11 -10,27 -3,40c6,14 18,23 32,25c7,-11 9,-27 3,-40z" id="svg_71" stroke="null"/>
         <path class="fil2" d="m330834.072518,227906.861677c-1,-17 -11,-31 -25,-39c-12,10 -20,25 -18,42c1,17 11,32 25,39c12,-9 20,-25 18,-42z" id="svg_70" stroke="null"/>
        </g>
        <g id="svg_56" stroke="null">
         <path class="fil2" d="m331007.072518,228069.861677c21,-28 54,-41 87,-38c10,30 6,65 -16,93c-21,27 -54,41 -86,38c-11,-31 -6,-66 15,-93z" id="svg_68" stroke="null"/>
         <path class="fil2" d="m331113.072518,228177.861677c30,-17 66,-17 95,-2c-2,32 -20,63 -51,80c-30,17 -65,17 -94,2c2,-32 20,-63 50,-80z" id="svg_67" stroke="null"/>
         <path class="fil2" d="m331193.072518,228323.861677c34,9 59,35 69,66c-25,21 -59,30 -93,21c-33,-10 -58,-35 -68,-66c24,-21 59,-30 92,-21z" id="svg_66" stroke="null"/>
         <path class="fil2" d="m331247.072518,228237.861677c25,-5 49,4 65,20c-9,21 -28,38 -52,43c-25,5 -48,-4 -65,-20c9,-21 28,-38 52,-43z" id="svg_65" stroke="null"/>
         <path class="fil2" d="m331151.072518,228065.861677c19,-17 44,-21 66,-15c3,23 -5,46 -24,63c-18,16 -43,21 -65,15c-4,-23 4,-47 23,-63z" id="svg_64" stroke="null"/>
         <path class="fil2" d="m330967.072518,227994.861677c9,-16 25,-27 42,-28c9,15 10,34 1,50c-8,17 -24,27 -41,29c-9,-15 -10,-34 -2,-51z" id="svg_63" stroke="null"/>
         <path class="fil2" d="m331074.072518,227941.861677c15,-17 36,-24 56,-20c6,19 1,41 -14,57c-14,17 -36,24 -56,20c-5,-19 0,-41 14,-57z" id="svg_62" stroke="null"/>
         <path class="fil2" d="m331267.072518,228163.861677c18,-9 38,-7 54,3c-3,18 -14,35 -32,43c-18,9 -38,7 -54,-3c3,-18 14,-35 32,-43z" id="svg_61" stroke="null"/>
         <path class="fil2" d="m331232.072518,228104.861677c12,-10 29,-12 43,-8c1,15 -5,30 -17,40c-13,11 -29,13 -43,8c-1,-14 4,-30 17,-40z" id="svg_60" stroke="null"/>
         <path class="fil2" d="m331144.072518,227985.861677c14,-12 33,-16 50,-11c2,17 -4,36 -18,48c-14,13 -33,16 -50,11c-3,-17 3,-35 18,-48z" id="svg_59" stroke="null"/>
         <path class="fil2" d="m331016.072518,227904.861677c7,-14 19,-23 33,-25c7,11 9,27 3,40c-6,14 -19,23 -32,25c-8,-11 -10,-27 -4,-40z" id="svg_58" stroke="null"/>
         <path class="fil2" d="m330944.072518,227906.861677c1,-17 11,-31 25,-39c13,10 20,25 19,42c-1,17 -11,32 -25,39c-13,-9 -20,-25 -19,-42z" id="svg_57" stroke="null"/>
        </g>
       </g>
      </g>
     </g>
    </g>
   </g>
  </g>
 </g>
</svg>